<svg width="29" height="28" viewBox="0 0 29 28" fill="none" xmlns="http://www.w3.org/2000/svg">
<g transform="translate(2.5, 2)">
<path
  d="M2.75 9.75a3 3 0 0 1 3-3h12.5a3 3 0 0 1 3 3v8.5a3 3 0 0 1-3 3H5.75a3 3 0 0 1-3-3v-8.5Z"
  fill="#14B8A6"
  stroke="#14B8A6"
  strokeWidth="1.5"
  strokeLinecap="round"
  strokeLinejoin="round"
/>
<path
  d="M3 14.25h6.249c.484 0 .952-.002 1.316.319l.777.682a.996.996 0 0 0 1.316 0l.777-.682c.364-.32.832-.319 1.316-.319H21M8.75 6.5V4.75a2 2 0 0 1 2-2h2.5a2 2 0 0 1 2 2V6.5"
  stroke="#14B8A6"
  strokeWidth="1.5"
  strokeLinecap="round"
  strokeLinejoin="round"
  fill="none"
/>
</g>
</svg> 